<svg xmlns="http://www.w3.org/2000/svg" width="36" height="19" viewBox="0 0 36 19" fill="none">
  <path d="M21.8 11.28C22.332 11.12 22.864 10.88 23.32 10.56V8H24.84V6.4H23.32V4.8H30.084C28.488 9.2 24.84 12.48 20.28 13.36V1.6H33.884C33.124 10.16 26.284 16.8 18 16.8C9.71602 16.8 2.87602 10.16 2.11602 1.6H15.72V13.36C11.236 12.48 7.51202 9.2 5.91602 4.8H12.68V6.4H11.16V8H12.68V10.64C13.136 10.88 13.668 11.12 14.2 11.36V3.2H3.86402C5.23202 9.76 10.628 14.8 17.24 15.12V0H0.52002C0.52002 10.16 8.34802 18.4 18 18.4C27.652 18.4 35.48 10.16 35.48 0H18.76V15.12C25.372 14.72 30.768 9.76 32.136 3.2H21.8V11.28Z"/>
</svg>
