<?xml version="1.0" encoding="utf-8"?>
<!-- Generator: Adobe Illustrator 27.5.0, SVG Export Plug-In . SVG Version: 6.00 Build 0)  -->
<svg version="1.1" id="Layer_1" xmlns="http://www.w3.org/2000/svg" xmlns:xlink="http://www.w3.org/1999/xlink" x="0px" y="0px"
	 width="156px" height="60px" viewBox="0 0 228 87.5" enable-background="new 0 0 228 87.5" xml:space="preserve">
<g>
	<rect x="14.8999996" y="7.4000001" fill="#3B6E8E" width="198.1999969" height="72.5999985"/>
	<g>
		<path fill="#FFFDF4" d="M26.8999996,57.2999992c0-6.4000015,3.2999992-10.1000023,9.6000004-14.2000008
			C31,40,26.3999996,36.1999969,26.3999996,30.4999981c0-6.3999996,5.3000011-14.1999989,15.8000011-14.1999989
			c6.7999992,0,12.6000023,4.7000008,12.6000023,9.5c0,7-2.4000015,10.2999992-10.2000008,15.7000008
			C50.5000038,44.2999992,55,48.0999985,55,54.7999992c0,5.7999992-5.5999985,13.0000038-14.5999985,13.0000038
			C30.2999992,67.9000015,26.8999996,62,26.8999996,57.2999992 M49.5999985,56.4000015
			c0-6-4.9000015-8.7000008-10.7000008-11.7999992c-4.7000008,2.7000008-7.3999996,6.9000015-7.3999996,11.6000023
			c0,6.4000015,5.0000019,9.1999969,9.3000011,9.1999969C46.2000008,65.4000015,49.5999985,62.5,49.5999985,56.4000015
			 M32.0999985,28.7000008c0,5.2999992,3.5,7.5,10,11.2999992c3.5999985-2.2999992,7.5-6.5999985,7.7999992-11.6000004
			C50.0999985,23,46.0999985,19.2999992,41,19.2999992C35.7000008,19.2999992,32.0999985,23.6000004,32.0999985,28.7000008"/>
		<path fill="#FFFDF4" d="M80.5999985,66.8000031c-0.6999969,0-0.9000015-0.0999985-0.9000015-0.8000031V53H59.0999985
			C58.3999977,53,58,52.7000008,58,52.0999985c0-0.4000015,0.2000008-0.7000008,0.7000008-1.5L82.6999969,17.5
			c0.4000015-0.6000004,1-1.2000008,1.5999985-1.2000008c0.6999969,0,1,0.5,1,2.2000008V48h6
			c0.5,0,0.9000015,0.2000008,0.9000015,0.5999985v3.5C92.1999969,52.5,92,52.7999992,91,52.7999992h-5.6999969v12.7999992
			c0,0.8000031-0.0999985,1-1,1h-3.7000046V66.8000031z M79.8000031,28.1000004
			c0-1.2000008-0.6999969-1.3999996-1.4000015-0.3999996L64.8000031,46.5c-0.9000015,1.2999992-0.8000031,2,0.5,2h14.5V28.1000004z"
			/>
		<path fill="#FFFDF4" d="M95.8000031,44.5999985c0-16.8999996,7-28.2999992,16.5-28.2999992
			c10.9000015,0,15.8999939,14.1000004,15.8999939,25.2999992c0,16.9000015-6.3000031,26.2000046-15.8000031,26.2000046
			C100.4000015,67.9000015,95.8000031,53.5,95.8000031,44.5999985 M119.5,60
			c1.5999985-3.5,2.3000031-9.2000008,2.3000031-19.9000015c0-10.8999996-3.6999969-21.1000004-10-21.1000004
			c-2.9000015,0-5,1.1000004-6.5999985,4.3999996c-2.6999969,5.2000008-3,13.7999992-3,19.8999977
			c0,7,0.9000015,12.2000008,2.5,15.5999985c2.3000031,4.9000015,5.0999985,6.3000031,7.6999969,6.3000031
			C114.6999969,65.1999969,117.5,64.3000031,119.5,60"/>
		<path fill="#FFFDF4" d="M132.8000031,44.5999985c0-16.8999996,7-28.2999992,16.5-28.2999992
			c10.8999939,0,15.8999939,14.1000004,15.8999939,25.2999992c0,16.9000015-6.3000031,26.2000046-15.8000031,26.2000046
			C137.3000031,67.9000015,132.8000031,53.5,132.8000031,44.5999985 M156.5,60
			c1.6000061-3.5,2.3000031-9.2000008,2.3000031-19.9000015c0-10.8999996-3.6999969-21.1000004-10-21.1000004
			c-2.8999939,0-5,1.1000004-6.6999969,4.3999996c-2.6999969,5.2000008-3,13.7999992-3,19.8999977
			c0,7,0.8999939,12.2000008,2.5,15.5999985c2.3000031,4.9000015,5.1000061,6.3000031,7.6999969,6.3000031
			C151.6999969,65.1999969,154.5,64.3000031,156.5,60"/>
		<path fill="#FFFDF4" d="M169.6999969,44.5999985c0-16.8999996,7-28.2999992,16.5-28.2999992
			c10.8999939,0,15.8999939,14.1000004,15.8999939,25.2999992c0,16.9000015-6.3000031,26.2000046-15.8000031,26.2000046
			C174.3000031,67.9000015,169.6999969,53.5,169.6999969,44.5999985 M193.3999939,60
			c1.6000061-3.5,2.3000031-9.2000008,2.3000031-19.9000015c0-10.8999996-3.6999969-21.1000004-10-21.1000004
			c-2.8999939,0-4.8999939,1.1000004-6.6000061,4.3999996c-2.6999969,5.2000008-3,13.7999992-3,19.8999977
			c0,7,0.8999939,12.2000008,2.5,15.5999985c2.3000031,4.9000015,5.1000061,6.3000031,7.6999969,6.3000031
			C188.6000061,65.1999969,191.3999939,64.3000031,193.3999939,60"/>
		<polygon fill="#CF6F1A" points="220.5,49.9000015 213.1000061,49.9000015 213.1000061,80 175.6000061,80 175.6000061,87.5
			220.5,87.4000015 		"/>
		<polygon fill="#892629" points="175.6000061,0 175.6000061,7.4000001 213.1000061,7.4000001 213.1000061,37.5999985
			220.5,37.5999985 220.5,0 		"/>
		<polygon fill="#892629" points="14.8999996,80 14.8999996,49.9000015 7.5,49.9000015 7.5,87.5 52.4000015,87.5 52.4000015,80
			"/>
		<polygon fill="#003F5F" points="52.4000015,0 7.5,0 7.5,37.5999985 14.8999996,37.5999985 14.8999996,7.4000001
			52.4000015,7.4000001 		"/>
	</g>
	<g>
		<polygon fill="#CF6F1A" points="14.8999996,37.5999985 7.5,37.5999985 7.5,22.3999996 0,22.3999996 0,66.3000031 7.5,66.3000031
			7.5,49.9000015 14.8999996,49.9000015 		"/>
		<polygon fill="#386351" points="220.5,22.3999996 220.5,37.5 213.1000061,37.5 213.1000061,49.9000015 220.5,49.9000015
			220.5,66.3000031 228,66.3000031 228,22.3999996 		"/>
	</g>
</g>
</svg>
